<svg xmlns="http://www.w3.org/2000/svg" viewBox="0 0 256 262" aria-hidden="true">
  <path fill="#4285F4" d="M255.68 133.45c0-11.83-1.06-23.18-3.04-34.09H130.5v64.57h69.86c-3.01 16.2-12.15 29.93-25.89 39.1v32.42h41.85c24.49-22.55 38.36-55.78 38.36-92z"/>
  <path fill="#34A853" d="M130.5 261.1c34.83 0 64.06-11.55 85.41-31.29l-41.85-32.42c-11.62 7.8-26.47 12.39-43.56 12.39-33.5 0-61.89-22.64-72.04-53.07H15.19v33.34c21.24 42.21 64.95 71.05 115.31 71.05z"/>
  <path fill="#FBBC05" d="M58.46 156.71c-2.58-7.8-4.06-16.12-4.06-24.71s1.48-16.91 4.06-24.71V73.95H15.19C5.52 93.22 0 114.96 0 132s5.52 38.78 15.19 58.05l43.27-33.34z"/>
  <path fill="#EA4335" d="M130.5 52.22c18.94 0 35.94 6.52 49.33 19.31l36.99-36.99C194.5 13.73 165.27 0 130.5 0 80.14 0 36.43 28.84 15.19 71.05l43.27 33.34c10.15-30.43 38.54-52.17 72.04-52.17z"/>
</svg>
